grf
version=1
nRows=9
nColumns=37
inDegrees=no
endheader
time	ground_force_1_vx	ground_force_1_vy	ground_force_1_vz	ground_force_1_px	ground_force_1_py	ground_force_1_pz	ground_moment_1_mx	ground_moment_1_my	ground_moment_1_mz	ground_force_2_vx	ground_force_2_vy	ground_force_2_vz	ground_force_2_px	ground_force_2_py	ground_force_2_pz	ground_moment_2_mx	ground_moment_2_my	ground_moment_2_mz	ground_force_3_vx	ground_force_3_vy	ground_force_3_vz	ground_force_3_px	ground_force_3_py	ground_force_3_pz	ground_moment_3_mx	ground_moment_3_my	ground_moment_3_mz	ground_force_4_vx	ground_force_4_vy	ground_force_4_vz	ground_force_4_px	ground_force_4_py	ground_force_4_pz	ground_moment_4_mx	ground_moment_4_my	ground_moment_4_mz
      0.00000000	      0.00000000	     -0.00000000	      0.00000000	      0.00000000	      0.00000000	      0.00000000	      0.00000000	      0.00000000	      0.00000000	     -9.60872555	     32.73126221	   -449.62020874	   -293.11480155	  -1031.25239618	      0.00000000	      0.00000000	      0.00000000	   2409.67657958	     11.47635021	    -28.41629892	   -547.92999268	   -352.20232981	   -766.50929374	      0.00000000	      0.00000000	     -0.00000000	  -2048.50654404	      0.00000000	     -0.00000000	      0.00000000	      0.00000000	      0.00000000	      0.00000000	      0.00000000	      0.00000000	      0.00000000
      0.01000000	      0.00000000	     -0.00000000	      0.00000000	      0.00000000	      0.00000000	      0.00000000	      0.00000000	      0.00000000	      0.00000000	     -9.36710358	     32.71605301	   -450.34561157	   -292.60061727	  -1031.23947320	      0.00000000	      0.00000000	      0.00000000	   2660.60451400	     11.03266658	    -28.48081685	   -545.35168457	   -351.58148602	   -767.52503007	      0.00000000	      0.00000000	     -0.00000000	  -1846.01604348	      0.00000000	     -0.00000000	      0.00000000	      0.00000000	      0.00000000	      0.00000000	      0.00000000	      0.00000000	      0.00000000
      0.02000000	      0.00000000	     -0.00000000	      0.00000000	      0.00000000	      0.00000000	      0.00000000	      0.00000000	      0.00000000	      0.00000000	     -9.36710358	     32.65304947	   -448.85345459	   -292.16086723	  -1030.96194297	      0.00000000	      0.00000000	      0.00000000	   2496.18852715	     10.52417025	    -28.99329850	   -545.63000488	   -351.10524690	   -766.55708611	      0.00000000	      0.00000000	     -0.00000000	  -1649.87538465	      0.00000000	     -0.00000000	      0.00000000	      0.00000000	      0.00000000	      0.00000000	      0.00000000	      0.00000000	      0.00000000
      0.03000000	      0.00000000	     -0.00000000	      0.00000000	      0.00000000	      0.00000000	      0.00000000	      0.00000000	      0.00000000	      0.00000000	     -9.06823063	     32.43895721	   -448.62646484	   -292.84542500	  -1031.52608494	      0.00000000	      0.00000000	      0.00000000	   2630.86601925	     10.57298880	    -29.46728036	   -543.82080078	   -350.81394650	   -766.81825467	      0.00000000	      0.00000000	     -0.00000000	  -1743.10812148	      0.00000000	     -0.00000000	      0.00000000	      0.00000000	      0.00000000	      0.00000000	      0.00000000	      0.00000000	      0.00000000
      0.04000000	      0.00000000	     -0.00000000	      0.00000000	      0.00000000	      0.00000000	      0.00000000	      0.00000000	      0.00000000	      0.00000000	     -8.91689968	     32.71915817	   -445.85275269	   -292.21824017	  -1030.64570614	      0.00000000	      0.00000000	      0.00000000	   2598.02144027	     10.74184543	    -29.33060931	   -543.53326416	   -350.37617416	   -766.72897196	      0.00000000	      0.00000000	     -0.00000000	  -1702.95279588	      0.00000000	     -0.00000000	      0.00000000	      0.00000000	      0.00000000	      0.00000000	      0.00000000	      0.00000000	      0.00000000
      0.05000000	      0.00000000	     -0.00000000	      0.00000000	      0.00000000	      0.00000000	      0.00000000	      0.00000000	      0.00000000	      0.00000000	     -8.56420898	     32.35433960	   -445.35992432	   -291.81892224	  -1031.12266238	      0.00000000	      0.00000000	     -0.00000000	   2676.83028276	     10.66989356	    -29.31538103	   -545.59783936	   -349.90189956	   -765.77396196	      0.00000000	      0.00000000	     -0.00000000	  -1582.19217768	      0.00000000	     -0.00000000	      0.00000000	      0.00000000	      0.00000000	      0.00000000	      0.00000000	      0.00000000	      0.00000000
      0.06000000	      0.00000000	     -0.00000000	      0.00000000	      0.00000000	      0.00000000	      0.00000000	      0.00000000	      0.00000000	      0.00000000	     -8.69447899	     32.44346619	   -445.46865845	   -291.35409328	  -1031.57734579	      0.00000000	      0.00000000	      0.00000000	   2701.09429720	     10.87948924	    -29.37932873	   -544.29943848	   -349.30826387	   -765.76098881	      0.00000000	      0.00000000	     -0.00000000	  -1720.31304683	      0.00000000	     -0.00000000	      0.00000000	      0.00000000	      0.00000000	      0.00000000	      0.00000000	      0.00000000	      0.00000000
      0.07000000	      0.00000000	     -0.00000000	      0.00000000	      0.00000000	      0.00000000	      0.00000000	      0.00000000	      0.00000000	      0.00000000	     -8.77339268	     32.47420120	   -445.12850952	   -291.74515457	  -1032.12828635	      0.00000000	      0.00000000	      0.00000000	   2742.71287183	     10.82949000	    -29.39292621	   -543.40515137	   -348.84292212	   -766.10043928	      0.00000000	      0.00000000	     -0.00000000	  -1711.95281485	      0.00000000	     -0.00000000	      0.00000000	      0.00000000	      0.00000000	      0.00000000	      0.00000000	      0.00000000	      0.00000000
      0.08000000	      0.00000000	     -0.00000000	      0.00000000	      0.00000000	      0.00000000	      0.00000000	      0.00000000	      0.00000000	      0.00000000	     -8.85976601	     32.35433960	   -444.41094971	   -290.77986972	  -1031.78194272	      0.00000000	      0.00000000	      0.00000000	   2740.30788737	     10.51845577	    -29.68247506	   -544.55169678	   -348.34426319	   -765.09266928	      0.00000000	     -0.00000000	     -0.00000000	  -1740.50763520	      0.00000000	     -0.00000000	      0.00000000	      0.00000000	      0.00000000	      0.00000000	      0.00000000	      0.00000000	      0.00000000
